<?xml version="1.0" encoding="utf-8"?>
<svg viewBox="0 0 141 141" xmlns="http://www.w3.org/2000/svg" xmlns:bx="https://boxy-svg.com">
  <defs>
    <linearGradient gradientUnits="userSpaceOnUse" x1="64.707" y1="5.849" x2="64.707" y2="57.674" id="gradient-0" gradientTransform="matrix(1.113964, 0, 0, 1.363522, -13.103134, -4.545045)">
      <stop offset="0" style="stop-color: rgb(11.765% 0% 24.314%)"/>
      <stop offset="1" style="stop-color: rgb(10.526% 0% 22.463%)"/>
    </linearGradient>
    <linearGradient gradientUnits="userSpaceOnUse" x1="62.917" y1="43.983" x2="62.917" y2="71.227" id="gradient-1" gradientTransform="matrix(1, 0, 0, 1, -6.041336, 12.856368)">
      <stop offset="0" style="stop-color: rgb(11.765% 0% 24.314%)"/>
      <stop offset="1" style="stop-color: rgb(10.526% 0% 22.463%)"/>
    </linearGradient>
  </defs>
  <path style="fill: rgb(241, 241, 241); stroke: rgba(255, 255, 255, 0);" d="M 23.881 80.391 L 24.5365 87.84916666666668 C 25.191999999999997 95.30733333333335 26.503 110.22366666666666 32.0635 117.76366666666667 C 37.624 125.30366666666667 47.434 125.46733333333333 52.846833333333336 128.36983333333333 C 58.25966666666667 131.27233333333334 59.27533333333333 136.91366666666667 61.838666666666676 136.80433333333335 C 64.402 136.69500000000002 68.51299999999999 130.835 73.04016666666666 124.33999999999999 C 77.56733333333334 117.84499999999998 82.51066666666667 110.71499999999999 85.70033333333333 103.27933333333333 C 88.88999999999999 95.84366666666666 90.32600000000001 88.10233333333333 91.044 84.23166666666667 L 91.762 80.361" bx:d="M 23.881 80.391 U 27.814 125.14 U 57.244 125.631 U 60.291 142.555 U 72.624 124.975 U 87.454 103.585 U 91.762 80.361 1@38e383d3"/>
  <path d="M 594.696 238.996 Q 608.297 227.697 621.898 238.996 L 627.08 243.3 Q 640.681 254.598 635.486 272.88 L 633.507 279.844 Q 628.312 298.126 611.499 298.126 L 605.095 298.126 Q 588.282 298.126 583.087 279.844 L 581.108 272.88 Q 575.913 254.598 589.514 243.3 Z" style="stroke: rgb(0, 0, 0); paint-order: stroke; fill: rgb(255, 218, 101);" transform="matrix(0.999783, 0.020848, -0.020848, 0.999783, -546.213734, -193.979936)" bx:shape="n-gon 608.297 266.629 34.051 38.932 5 0.42 1@4009c448"/>
  <ellipse style="stroke: rgb(0, 0, 0); paint-order: fill; fill: rgb(244, 244, 244);" cx="70.099" cy="82.926" rx="9.099" ry="9.099"/>
  <ellipse style="stroke: rgb(0, 0, 0); paint-order: fill; fill: rgb(244, 244, 244);" cx="44.177" cy="82.763" rx="9.232" ry="9.232"/>
  <ellipse style="fill: url('#gradient-1'); stroke: rgba(255, 255, 255, 0);" cx="56.876" cy="70.461" rx="48.851" ry="13.622"/>
  <polyline style="stroke-linejoin: bevel; fill-rule: nonzero; fill: url('#gradient-0'); stroke: rgba(255, 255, 255, 0);" points="34.659 72.717 46.872 16.746 83.298 3.429 69.707 22.371 74.034 74.095"/>
  <path style="fill: none; stroke: rgb(255, 255, 255);" d="M 36.931 69.013 C 36.849 75.856 72.099 77.88 72.191 70.004"/>
  <path d="M 1200.016 611.093 L 1206.21 621.728 L 1218.239 624.333 L 1210.039 633.511 L 1211.279 645.756 L 1200.016 640.793 L 1188.753 645.756 L 1189.993 633.511 L 1181.793 624.333 L 1193.822 621.728 Z" style="stroke: rgb(0, 0, 0); fill: rgb(255, 212, 18); transform-origin: 1200.02px 628.425px;" transform="matrix(0.615677, 0.787999, -0.787999, 0.615677, -1084.609375, -601.323303)" bx:shape="star 1200.016 630.254 19.161 19.161 0.55 5 1@308f7146"/>
</svg>