<?xml version="1.0" encoding="utf-8"?>
<svg viewBox="0 0 141 141" xmlns="http://www.w3.org/2000/svg" xmlns:bx="https://boxy-svg.com">
  <defs>
    <linearGradient gradientUnits="userSpaceOnUse" x1="64.707" y1="5.849" x2="64.707" y2="57.674" id="gradient-0" gradientTransform="matrix(1.113964, 0, 0, 1.363522, -3.804758, -4.478484)">
      <stop offset="0" style="stop-color: rgb(11.765% 0% 24.314%)"/>
      <stop offset="1" style="stop-color: rgb(10.526% 0% 22.463%)"/>
    </linearGradient>
    <linearGradient gradientUnits="userSpaceOnUse" x1="62.917" y1="43.983" x2="62.917" y2="71.227" id="gradient-1" gradientTransform="matrix(1, 0, 0, 1, 3.488282, 13.021049)">
      <stop offset="0" style="stop-color: rgb(11.765% 0% 24.314%)"/>
      <stop offset="1" style="stop-color: rgb(10.526% 0% 22.463%)"/>
    </linearGradient>
  </defs>
  <ellipse style="stroke: rgb(0, 0, 0); fill: rgb(245, 245, 245);" cx="70.449" cy="70.565" rx="70.378" ry="70.378"/>
  <path style="stroke: rgba(255, 255, 255, 0); fill: rgb(22, 0, 78);" d="M 32.881 80.391 L 33.5365 87.84916666666668 C 34.192 95.30733333333335 35.503 110.22366666666666 41.0635 117.76366666666667 C 46.624 125.30366666666667 56.434 125.46733333333333 61.846833333333336 128.36983333333333 C 67.25966666666666 131.27233333333334 68.27533333333334 136.91366666666667 70.83866666666667 136.80433333333335 C 73.402 136.69500000000002 77.51299999999999 130.835 82.04016666666666 124.33999999999999 C 86.56733333333334 117.84499999999998 91.51066666666667 110.71499999999999 94.70033333333333 103.27933333333333 C 97.88999999999999 95.84366666666666 99.32600000000001 88.10233333333333 100.044 84.23166666666667 L 100.762 80.361" bx:d="M 32.881 80.391 U 36.814 125.14 U 66.244 125.631 U 69.291 142.555 U 81.624 124.975 U 96.454 103.585 U 100.762 80.361 1@604abb25"/>
  <path d="M 594.696 238.996 Q 608.297 227.697 621.898 238.996 L 627.08 243.3 Q 640.681 254.598 635.486 272.88 L 633.507 279.844 Q 628.312 298.126 611.499 298.126 L 605.095 298.126 Q 588.282 298.126 583.087 279.844 L 581.108 272.88 Q 575.913 254.598 589.514 243.3 Z" style="stroke: rgb(0, 0, 0); paint-order: stroke; fill: rgb(255, 218, 101);" transform="matrix(0.999783, 0.020848, -0.020848, 0.999783, -537.217945, -193.982042)" bx:shape="n-gon 608.297 266.629 34.051 38.932 5 0.42 1@4009c448"/>
  <ellipse style="stroke: rgb(0, 0, 0); paint-order: fill; fill: rgb(244, 244, 244);" cx="79.099" cy="82.926" rx="9.099" ry="9.099"/>
  <ellipse style="stroke: rgb(0, 0, 0); paint-order: fill; fill: rgb(244, 244, 244);" cx="53.177" cy="82.763" rx="9.232" ry="9.232"/>
  <ellipse style="fill: url('#gradient-1'); stroke: rgba(255, 255, 255, 0);" cx="66.406" cy="70.626" rx="48.851" ry="13.622"/>
  <polyline style="stroke-linejoin: bevel; fill-rule: nonzero; fill: url('#gradient-0'); stroke: rgba(255, 255, 255, 0);" points="43.958 72.783 56.171 16.812 92.597 3.495 79.006 22.437 83.333 74.161"/>
  <path style="fill: none; stroke: rgb(255, 255, 255);" d="M 45.931 69.013 C 45.849 75.856 81.099 77.88 81.191 70.004"/>
  <path d="M 1200.016 612.639 L 1205.711 622.416 L 1216.769 624.811 L 1209.23 633.248 L 1210.37 644.505 L 1200.016 639.942 L 1189.662 644.505 L 1190.802 633.248 L 1183.263 624.811 L 1194.321 622.416 Z" style="stroke: rgb(0, 0, 0); fill: rgb(255, 212, 18); transform-box: fill-box; transform-origin: 50% 50%;" transform="matrix(0.927191, 0.374588, -0.374588, 0.927191, -1178.146728, -606.205262)" bx:shape="star 1200.016 630.254 17.615 17.615 0.55 5 1@63013ffc"/>
  <path d="M 1200.016 611.093 L 1206.21 621.728 L 1218.239 624.333 L 1210.039 633.511 L 1211.279 645.756 L 1200.016 640.793 L 1188.753 645.756 L 1189.993 633.511 L 1181.793 624.333 L 1193.822 621.728 Z" style="stroke: rgb(0, 0, 0); fill: rgb(255, 212, 18); transform-origin: 1200.02px 628.425px;" transform="matrix(0.615677, 0.787999, -0.787999, 0.615677, -1079.40564, -509.669983)" bx:shape="star 1200.016 630.254 19.161 19.161 0.55 5 1@308f7146"/>
</svg>