<?xml version="1.0" encoding="utf-8"?>
<svg viewBox="0 0 141 141" xmlns="http://www.w3.org/2000/svg" xmlns:bx="https://boxy-svg.com">
  <defs>
    <linearGradient gradientUnits="userSpaceOnUse" x1="64.707" y1="5.849" x2="64.707" y2="57.674" id="gradient-0" gradientTransform="matrix(1.347766, 0, 0, 1.649702, -14.294877, -20.414881)">
      <stop offset="0" style="stop-color: rgb(11.765% 0% 24.314%)"/>
      <stop offset="1" style="stop-color: rgb(10.526% 0% 22.463%)"/>
    </linearGradient>
    <linearGradient gradientUnits="userSpaceOnUse" x1="62.917" y1="43.983" x2="62.917" y2="71.227" id="gradient-1" gradientTransform="matrix(1.209883, 0, 0, 1.209883, -5.75093, 0.638789)">
      <stop offset="0" style="stop-color: rgb(11.765% 0% 24.314%)"/>
      <stop offset="1" style="stop-color: rgb(10.526% 0% 22.463%)"/>
    </linearGradient>
  </defs>
  <path style="fill: rgb(241, 241, 241); stroke: rgba(255, 255, 255, 0);" d="M 30.451 82.347 L 31.244 91.37049999999999 C 32.037 100.394 33.623 118.44099999999999 40.350500000000004 127.56349999999999 C 47.078 136.686 58.947 136.884 65.496 140.39566666666667 C 72.045 143.90733333333333 73.274 150.73266666666666 76.37533333333333 150.60049999999998 C 79.47666666666667 150.46833333333333 84.45033333333333 143.37866666666665 89.92766666666667 135.5205 C 95.40500000000002 127.66233333333332 101.38600000000001 119.03566666666666 105.24516666666666 110.03933333333333 C 109.10433333333333 101.043 110.84166666666665 91.677 111.71033333333332 86.99400000000001 L 112.579 82.311" bx:d="M 30.451 82.347 U 35.209 136.488 U 70.816 137.082 U 74.503 157.558 U 89.424 136.289 U 107.367 110.409 U 112.579 82.311 1@0d8bc544"/>
  <path d="M 591.841 236.65 Q 608.297 224.392 624.753 236.65 L 631.022 241.319 Q 647.479 253.577 641.193 273.41 L 638.798 280.966 Q 632.513 300.799 612.171 300.799 L 604.423 300.799 Q 584.081 300.799 577.796 280.966 L 575.401 273.41 Q 569.115 253.577 585.572 241.319 Z" style="stroke: rgb(0, 0, 0); paint-order: stroke; fill: rgb(255, 218, 101);" transform="matrix(0.999783, 0.020848, -0.020848, 0.999783, -533.536732, -195.791826)" bx:shape="n-gon 608.297 266.629 41.198 42.237 5 0.42 1@e3dfea0d"/>
  <ellipse style="fill: url('#gradient-1'); stroke: rgba(255, 255, 255, 0);" cx="70.371" cy="70.333" rx="59.104" ry="16.481"/>
  <polyline style="stroke-linejoin: bevel; fill-rule: nonzero; fill: url('#gradient-0'); stroke: rgba(255, 255, 255, 0);" points="43.491 73.063 58.267 5.344 102.339 -10.768 85.895 12.15 91.13 74.73"/>
  <path style="fill: none; stroke: rgb(255, 255, 255);" d="M 46.24 68.581 C 46.141 76.86 88.789 79.309 88.9 69.78"/>
  <path d="M 1200.016 611.093 L 1206.21 621.728 L 1218.239 624.333 L 1210.039 633.511 L 1211.279 645.756 L 1200.016 640.793 L 1188.753 645.756 L 1189.993 633.511 L 1181.793 624.333 L 1193.822 621.728 Z" style="stroke: rgb(0, 0, 0); fill: rgb(255, 212, 18); transform-origin: 1200.02px 628.425px;" transform="matrix(0.615677, 0.787999, -0.787999, 0.615677, -1083.414673, -604.309509)" bx:shape="star 1200.016 630.254 19.161 19.161 0.55 5 1@308f7146"/>
</svg>